<svg xmlns="http://www.w3.org/2000/svg" xmlns:xlink="http://www.w3.org/1999/xlink" width="500" zoomAndPan="magnify" viewBox="0 0 375 187.499995" height="250" preserveAspectRatio="xMidYMid meet" version="1.0"><defs><g/><clipPath id="07a0e53464"><path d="M 24.605469 108.582031 L 46.296875 108.582031 L 46.296875 130.273438 L 24.605469 130.273438 Z M 24.605469 108.582031 " clip-rule="nonzero"/></clipPath><clipPath id="3c2c3e2b76"><path d="M 50.144531 129.109375 L 65.105469 129.109375 L 65.105469 144.070312 L 50.144531 144.070312 Z M 50.144531 129.109375 " clip-rule="nonzero"/></clipPath><clipPath id="e10ce8ab3b"><path d="M 280.863281 29.921875 L 302.554688 29.921875 L 302.554688 51.613281 L 280.863281 51.613281 Z M 280.863281 29.921875 " clip-rule="nonzero"/></clipPath><clipPath id="a450c7c787"><path d="M 269.667969 15.179688 L 284.628906 15.179688 L 284.628906 30.140625 L 269.667969 30.140625 Z M 269.667969 15.179688 " clip-rule="nonzero"/></clipPath><clipPath id="1308b21a11"><path d="M 216.003906 40.707031 L 227.222656 40.707031 L 227.222656 51.925781 L 216.003906 51.925781 Z M 216.003906 40.707031 " clip-rule="nonzero"/></clipPath><clipPath id="854f560c59"><path d="M 331.136719 75.035156 L 346.097656 75.035156 L 346.097656 89.996094 L 331.136719 89.996094 Z M 331.136719 75.035156 " clip-rule="nonzero"/></clipPath><clipPath id="23fa5826b4"><path d="M 308.964844 142.101562 L 323.925781 142.101562 L 323.925781 157.0625 L 308.964844 157.0625 Z M 308.964844 142.101562 " clip-rule="nonzero"/></clipPath><clipPath id="e7b678ebd9"><path d="M 104.933594 30.773438 L 119.894531 30.773438 L 119.894531 45.730469 L 104.933594 45.730469 Z M 104.933594 30.773438 " clip-rule="nonzero"/></clipPath></defs><g fill="#c88b85" fill-opacity="1"><g transform="translate(36.718623, 134.681142)"><g><path d="M 34.875 -81.292969 C 15.6875 -81.292969 0 -66.511719 0 -48.359375 C 0 -30.078125 15.6875 -15.300781 34.875 -15.300781 C 54.195312 -15.300781 69.882812 -30.078125 69.882812 -48.359375 C 69.882812 -66.511719 54.195312 -81.292969 34.875 -81.292969 Z M 34.875 -20.226562 C 27.355469 -20.226562 21.132812 -32.800781 21.132812 -48.359375 C 21.132812 -63.789062 27.355469 -76.363281 34.875 -76.363281 C 42.527344 -76.363281 48.75 -63.789062 48.75 -48.359375 C 48.75 -32.800781 42.527344 -20.226562 34.875 -20.226562 Z M 34.875 -20.226562 "/></g></g></g><g fill="#c88b85" fill-opacity="1"><g transform="translate(107.507689, 134.681142)"><g><path d="M 57.953125 -59.898438 C 58.214844 -61.585938 59.378906 -63.660156 56.65625 -63.140625 C 51.859375 -62.101562 46.546875 -53.675781 34.097656 -53.675781 C 32.800781 -53.675781 32.285156 -52.121094 33.578125 -51.082031 C 38.117188 -47.582031 38.894531 -44.730469 38.894531 -39.933594 L 38.894531 -29.042969 C 37.210938 -25.152344 34.746094 -21.261719 32.023438 -21.261719 C 22.300781 -21.261719 21.78125 -44.46875 25.023438 -59.898438 C 25.410156 -61.585938 26.578125 -63.660156 23.855469 -63.140625 C 18.929688 -62.101562 13.742188 -53.675781 1.296875 -53.675781 C 0 -53.675781 -0.519531 -52.121094 0.777344 -51.082031 C 5.316406 -47.582031 6.09375 -44.730469 6.09375 -39.933594 C 6.09375 -20.746094 15.039062 -15.300781 26.707031 -15.300781 C 32.542969 -15.300781 36.5625 -18.667969 39.414062 -22.820312 C 40.710938 -19.058594 44.339844 -15.300781 50.046875 -15.300781 L 61.972656 -15.300781 C 63.269531 -15.300781 63.53125 -16.726562 62.363281 -18.023438 C 54.324219 -27.617188 56.269531 -49.527344 57.953125 -59.898438 Z M 57.953125 -59.898438 "/></g></g></g><g fill="#c88b85" fill-opacity="1"><g transform="translate(171.165984, 134.681142)"><g><path d="M 39.414062 -63.269531 C 32.929688 -63.269531 26.96875 -55.878906 23.984375 -51.472656 L 25.023438 -59.898438 C 25.28125 -61.585938 26.578125 -63.660156 23.855469 -63.140625 C 18.929688 -62.101562 13.742188 -53.675781 1.296875 -53.675781 C 0 -53.675781 -0.519531 -52.121094 0.777344 -51.082031 C 5.316406 -47.582031 6.09375 -44.730469 6.09375 -39.933594 L 6.09375 -29.042969 C 6.09375 -24.246094 5.316406 -21.390625 0.777344 -18.023438 C -0.519531 -16.984375 0 -15.300781 1.296875 -15.300781 L 26.578125 -15.300781 C 29.300781 -15.300781 29.300781 -17.503906 27.875 -18.539062 C 24.246094 -21.261719 22.429688 -30.46875 23.335938 -44.859375 C 25.800781 -49.527344 30.207031 -54.324219 33.320312 -54.324219 C 35.652344 -54.324219 34.488281 -51.730469 33.96875 -48.878906 C 32.542969 -38.765625 54.324219 -42.785156 51.859375 -55.101562 C 50.824219 -60.546875 44.46875 -63.269531 39.414062 -63.269531 Z M 39.414062 -63.269531 "/></g></g></g><g fill="#c88b85" fill-opacity="1"><g transform="translate(224.192944, 134.681142)"><g><path d="M 51.992188 -18.023438 C 47.453125 -21.390625 46.675781 -24.246094 46.675781 -29.042969 L 46.675781 -39.671875 C 46.675781 -53.675781 36.171875 -63.269531 22.300781 -63.269531 C 10.371094 -63.269531 3.890625 -57.304688 3.890625 -51.730469 C 3.890625 -44.210938 23.335938 -46.804688 20.613281 -53.15625 C 19.058594 -56.527344 19.058594 -59.640625 21.003906 -59.640625 C 25.671875 -59.640625 28.523438 -51.082031 28.523438 -43.5625 L 28.523438 -39.671875 C 25.671875 -43.433594 21.003906 -45.898438 15.816406 -45.898438 C 7.128906 -45.898438 0 -39.023438 0 -30.597656 C 0 -22.171875 7.128906 -15.300781 15.816406 -15.300781 C 21.003906 -15.300781 25.671875 -17.761719 28.523438 -21.523438 C 28.523438 -21.523438 31.246094 -15.300781 38.246094 -15.300781 L 51.472656 -15.300781 C 52.898438 -15.300781 53.285156 -16.984375 51.992188 -18.023438 Z M 21.523438 -22.300781 C 18.023438 -22.300781 15.167969 -26.058594 15.167969 -30.597656 C 15.167969 -35.136719 18.023438 -38.894531 21.523438 -38.894531 C 25.152344 -38.894531 28.003906 -35.136719 28.003906 -30.597656 C 28.003906 -26.058594 25.152344 -22.300781 21.523438 -22.300781 Z M 21.523438 -22.300781 "/></g></g></g><g fill="#c88b85" fill-opacity="1"><g transform="translate(278.516416, 134.681142)"><g><path d="M 63.011719 -18.023438 C 58.472656 -21.390625 57.695312 -24.246094 57.695312 -29.042969 L 57.695312 -37.597656 C 57.695312 -51.859375 48.75 -63.269531 34.746094 -63.269531 C 30.597656 -63.269531 27.226562 -60.546875 24.632812 -57.175781 L 25.023438 -59.898438 C 25.28125 -61.585938 26.578125 -63.660156 23.855469 -63.140625 C 18.929688 -62.101562 13.742188 -53.675781 1.296875 -53.675781 C 0 -53.675781 -0.519531 -52.121094 0.777344 -51.082031 C 5.316406 -47.582031 6.09375 -44.730469 6.09375 -39.933594 L 6.09375 -29.042969 C 6.09375 -24.246094 5.316406 -21.390625 0.777344 -18.023438 C -0.519531 -16.984375 0 -15.300781 1.296875 -15.300781 L 26.578125 -15.300781 C 29.300781 -15.300781 29.300781 -17.503906 27.875 -18.539062 C 23.984375 -21.523438 22.171875 -32.023438 23.597656 -48.488281 C 25.800781 -53.417969 28.394531 -57.304688 30.988281 -57.304688 C 39.933594 -57.304688 43.691406 -26.058594 35.394531 -18.539062 C 34.097656 -17.375 33.96875 -15.300781 36.691406 -15.300781 L 62.492188 -15.300781 C 63.789062 -15.300781 64.308594 -16.984375 63.011719 -18.023438 Z M 63.011719 -18.023438 "/></g></g></g><g fill="#f6b0a5" fill-opacity="1"><g transform="translate(33.209758, 132.655297)"><g><path d="M 34.875 -81.292969 C 15.6875 -81.292969 0 -66.511719 0 -48.359375 C 0 -30.078125 15.6875 -15.300781 34.875 -15.300781 C 54.195312 -15.300781 69.882812 -30.078125 69.882812 -48.359375 C 69.882812 -66.511719 54.195312 -81.292969 34.875 -81.292969 Z M 34.875 -20.226562 C 27.355469 -20.226562 21.132812 -32.800781 21.132812 -48.359375 C 21.132812 -63.789062 27.355469 -76.363281 34.875 -76.363281 C 42.527344 -76.363281 48.75 -63.789062 48.75 -48.359375 C 48.75 -32.800781 42.527344 -20.226562 34.875 -20.226562 Z M 34.875 -20.226562 "/></g></g></g><g fill="#f6b0a5" fill-opacity="1"><g transform="translate(103.998825, 132.655297)"><g><path d="M 57.953125 -59.898438 C 58.214844 -61.585938 59.378906 -63.660156 56.65625 -63.140625 C 51.859375 -62.101562 46.546875 -53.675781 34.097656 -53.675781 C 32.800781 -53.675781 32.285156 -52.121094 33.578125 -51.082031 C 38.117188 -47.582031 38.894531 -44.730469 38.894531 -39.933594 L 38.894531 -29.042969 C 37.210938 -25.152344 34.746094 -21.261719 32.023438 -21.261719 C 22.300781 -21.261719 21.78125 -44.46875 25.023438 -59.898438 C 25.410156 -61.585938 26.578125 -63.660156 23.855469 -63.140625 C 18.929688 -62.101562 13.742188 -53.675781 1.296875 -53.675781 C 0 -53.675781 -0.519531 -52.121094 0.777344 -51.082031 C 5.316406 -47.582031 6.09375 -44.730469 6.09375 -39.933594 C 6.09375 -20.746094 15.039062 -15.300781 26.707031 -15.300781 C 32.542969 -15.300781 36.5625 -18.667969 39.414062 -22.820312 C 40.710938 -19.058594 44.339844 -15.300781 50.046875 -15.300781 L 61.972656 -15.300781 C 63.269531 -15.300781 63.53125 -16.726562 62.363281 -18.023438 C 54.324219 -27.617188 56.269531 -49.527344 57.953125 -59.898438 Z M 57.953125 -59.898438 "/></g></g></g><g fill="#f6b0a5" fill-opacity="1"><g transform="translate(167.65712, 132.655297)"><g><path d="M 39.414062 -63.269531 C 32.929688 -63.269531 26.96875 -55.878906 23.984375 -51.472656 L 25.023438 -59.898438 C 25.28125 -61.585938 26.578125 -63.660156 23.855469 -63.140625 C 18.929688 -62.101562 13.742188 -53.675781 1.296875 -53.675781 C 0 -53.675781 -0.519531 -52.121094 0.777344 -51.082031 C 5.316406 -47.582031 6.09375 -44.730469 6.09375 -39.933594 L 6.09375 -29.042969 C 6.09375 -24.246094 5.316406 -21.390625 0.777344 -18.023438 C -0.519531 -16.984375 0 -15.300781 1.296875 -15.300781 L 26.578125 -15.300781 C 29.300781 -15.300781 29.300781 -17.503906 27.875 -18.539062 C 24.246094 -21.261719 22.429688 -30.46875 23.335938 -44.859375 C 25.800781 -49.527344 30.207031 -54.324219 33.320312 -54.324219 C 35.652344 -54.324219 34.488281 -51.730469 33.96875 -48.878906 C 32.542969 -38.765625 54.324219 -42.785156 51.859375 -55.101562 C 50.824219 -60.546875 44.46875 -63.269531 39.414062 -63.269531 Z M 39.414062 -63.269531 "/></g></g></g><g fill="#f6b0a5" fill-opacity="1"><g transform="translate(220.68408, 132.655297)"><g><path d="M 51.992188 -18.023438 C 47.453125 -21.390625 46.675781 -24.246094 46.675781 -29.042969 L 46.675781 -39.671875 C 46.675781 -53.675781 36.171875 -63.269531 22.300781 -63.269531 C 10.371094 -63.269531 3.890625 -57.304688 3.890625 -51.730469 C 3.890625 -44.210938 23.335938 -46.804688 20.613281 -53.15625 C 19.058594 -56.527344 19.058594 -59.640625 21.003906 -59.640625 C 25.671875 -59.640625 28.523438 -51.082031 28.523438 -43.5625 L 28.523438 -39.671875 C 25.671875 -43.433594 21.003906 -45.898438 15.816406 -45.898438 C 7.128906 -45.898438 0 -39.023438 0 -30.597656 C 0 -22.171875 7.128906 -15.300781 15.816406 -15.300781 C 21.003906 -15.300781 25.671875 -17.761719 28.523438 -21.523438 C 28.523438 -21.523438 31.246094 -15.300781 38.246094 -15.300781 L 51.472656 -15.300781 C 52.898438 -15.300781 53.285156 -16.984375 51.992188 -18.023438 Z M 21.523438 -22.300781 C 18.023438 -22.300781 15.167969 -26.058594 15.167969 -30.597656 C 15.167969 -35.136719 18.023438 -38.894531 21.523438 -38.894531 C 25.152344 -38.894531 28.003906 -35.136719 28.003906 -30.597656 C 28.003906 -26.058594 25.152344 -22.300781 21.523438 -22.300781 Z M 21.523438 -22.300781 "/></g></g></g><g fill="#f6b0a5" fill-opacity="1"><g transform="translate(275.007552, 132.655297)"><g><path d="M 63.011719 -18.023438 C 58.472656 -21.390625 57.695312 -24.246094 57.695312 -29.042969 L 57.695312 -37.597656 C 57.695312 -51.859375 48.75 -63.269531 34.746094 -63.269531 C 30.597656 -63.269531 27.226562 -60.546875 24.632812 -57.175781 L 25.023438 -59.898438 C 25.28125 -61.585938 26.578125 -63.660156 23.855469 -63.140625 C 18.929688 -62.101562 13.742188 -53.675781 1.296875 -53.675781 C 0 -53.675781 -0.519531 -52.121094 0.777344 -51.082031 C 5.316406 -47.582031 6.09375 -44.730469 6.09375 -39.933594 L 6.09375 -29.042969 C 6.09375 -24.246094 5.316406 -21.390625 0.777344 -18.023438 C -0.519531 -16.984375 0 -15.300781 1.296875 -15.300781 L 26.578125 -15.300781 C 29.300781 -15.300781 29.300781 -17.503906 27.875 -18.539062 C 23.984375 -21.523438 22.171875 -32.023438 23.597656 -48.488281 C 25.800781 -53.417969 28.394531 -57.304688 30.988281 -57.304688 C 39.933594 -57.304688 43.691406 -26.058594 35.394531 -18.539062 C 34.097656 -17.375 33.96875 -15.300781 36.691406 -15.300781 L 62.492188 -15.300781 C 63.789062 -15.300781 64.308594 -16.984375 63.011719 -18.023438 Z M 63.011719 -18.023438 "/></g></g></g><g clip-path="url(#07a0e53464)"><path fill="#e6bcb6" d="M 46.300781 119.429688 C 38.691406 121.21875 37.242188 122.671875 35.453125 130.277344 C 33.664062 122.671875 32.210938 121.21875 24.605469 119.429688 C 32.210938 117.640625 33.664062 116.1875 35.453125 108.582031 C 37.242188 116.1875 38.691406 117.640625 46.300781 119.429688 Z M 46.300781 119.429688 " fill-opacity="1" fill-rule="nonzero"/></g><g clip-path="url(#3c2c3e2b76)"><path fill="#c88b85" d="M 65.109375 136.589844 C 59.859375 137.824219 58.859375 138.824219 57.625 144.074219 C 56.390625 138.824219 55.390625 137.824219 50.144531 136.589844 C 55.390625 135.355469 56.390625 134.355469 57.625 129.109375 C 58.859375 134.355469 59.859375 135.355469 65.109375 136.589844 Z M 65.109375 136.589844 " fill-opacity="1" fill-rule="nonzero"/></g><g clip-path="url(#e10ce8ab3b)"><path fill="#e6bcb6" d="M 280.855469 40.765625 C 288.464844 38.976562 289.914062 37.523438 291.707031 29.917969 C 293.492188 37.523438 294.945312 38.976562 302.554688 40.765625 C 294.945312 42.554688 293.492188 44.007812 291.707031 51.613281 C 289.914062 44.007812 288.464844 42.554688 280.855469 40.765625 Z M 280.855469 40.765625 " fill-opacity="1" fill-rule="nonzero"/></g><g clip-path="url(#a450c7c787)"><path fill="#e6bcb6" d="M 269.664062 22.660156 C 274.914062 21.425781 275.914062 20.425781 277.148438 15.179688 C 278.378906 20.425781 279.382812 21.425781 284.628906 22.660156 C 279.382812 23.894531 278.378906 24.894531 277.148438 30.140625 C 275.914062 24.894531 274.914062 23.894531 269.664062 22.660156 Z M 269.664062 22.660156 " fill-opacity="1" fill-rule="nonzero"/></g><g clip-path="url(#1308b21a11)"><path fill="#c88b85" d="M 216 46.316406 C 219.9375 45.390625 220.6875 44.640625 221.613281 40.703125 C 222.535156 44.640625 223.289062 45.390625 227.222656 46.316406 C 223.289062 47.242188 222.535156 47.992188 221.613281 51.925781 C 220.6875 47.992188 219.9375 47.242188 216 46.316406 Z M 216 46.316406 " fill-opacity="1" fill-rule="nonzero"/></g><g clip-path="url(#854f560c59)"><path fill="#c88b85" d="M 346.101562 82.515625 C 340.851562 83.75 339.851562 84.75 338.617188 90 C 337.382812 84.75 336.382812 83.75 331.136719 82.515625 C 336.382812 81.28125 337.382812 80.28125 338.617188 75.035156 C 339.851562 80.28125 340.851562 81.28125 346.101562 82.515625 Z M 346.101562 82.515625 " fill-opacity="1" fill-rule="nonzero"/></g><g clip-path="url(#23fa5826b4)"><path fill="#e6bcb6" d="M 323.925781 149.582031 C 318.679688 150.816406 317.679688 151.816406 316.445312 157.066406 C 315.210938 151.816406 314.210938 150.816406 308.964844 149.582031 C 314.210938 148.347656 315.210938 147.347656 316.445312 142.101562 C 317.679688 147.347656 318.679688 148.347656 323.925781 149.582031 Z M 323.925781 149.582031 " fill-opacity="1" fill-rule="nonzero"/></g><g clip-path="url(#e7b678ebd9)"><path fill="#c88b85" d="M 119.898438 38.253906 C 114.652344 39.488281 113.652344 40.488281 112.417969 45.734375 C 111.183594 40.488281 110.183594 39.488281 104.933594 38.253906 C 110.183594 37.019531 111.183594 36.019531 112.417969 30.773438 C 113.652344 36.019531 114.652344 37.019531 119.898438 38.253906 Z M 119.898438 38.253906 " fill-opacity="1" fill-rule="nonzero"/></g><g fill="#231f20" fill-opacity="1"><g transform="translate(144.665267, 150.160889)"><g><path d="M 7.328125 0.171875 C 6.085938 0.171875 4.96875 -0.0976562 3.96875 -0.640625 C 2.96875 -1.179688 2.179688 -1.929688 1.609375 -2.890625 C 1.046875 -3.847656 0.765625 -4.929688 0.765625 -6.140625 C 0.765625 -7.347656 1.050781 -8.429688 1.625 -9.390625 C 2.195312 -10.347656 2.984375 -11.097656 3.984375 -11.640625 C 4.984375 -12.179688 6.109375 -12.453125 7.359375 -12.453125 C 8.359375 -12.453125 9.273438 -12.273438 10.109375 -11.921875 C 10.941406 -11.578125 11.644531 -11.070312 12.21875 -10.40625 L 10.734375 -9.015625 C 9.847656 -9.972656 8.753906 -10.453125 7.453125 -10.453125 C 6.609375 -10.453125 5.851562 -10.269531 5.1875 -9.90625 C 4.519531 -9.539062 4 -9.03125 3.625 -8.375 C 3.257812 -7.71875 3.078125 -6.972656 3.078125 -6.140625 C 3.078125 -5.304688 3.257812 -4.5625 3.625 -3.90625 C 4 -3.257812 4.519531 -2.75 5.1875 -2.375 C 5.851562 -2.007812 6.609375 -1.828125 7.453125 -1.828125 C 8.753906 -1.828125 9.847656 -2.3125 10.734375 -3.28125 L 12.21875 -1.875 C 11.644531 -1.207031 10.9375 -0.695312 10.09375 -0.34375 C 9.257812 0 8.335938 0.171875 7.328125 0.171875 Z M 7.328125 0.171875 "/></g></g></g><g fill="#231f20" fill-opacity="1"><g transform="translate(169.703769, 150.160889)"><g><path d="M 9.609375 -2.84375 L 3.46875 -2.84375 L 2.265625 0 L -0.09375 0 L 5.4375 -12.28125 L 7.6875 -12.28125 L 13.234375 0 L 10.84375 0 Z M 8.859375 -4.625 L 6.546875 -10 L 4.25 -4.625 Z M 8.859375 -4.625 "/></g></g></g><g fill="#231f20" fill-opacity="1"><g transform="translate(195.128212, 150.160889)"><g><path d="M 3.9375 -10.375 L 3.9375 -6.625 L 9.859375 -6.625 L 9.859375 -4.703125 L 3.9375 -4.703125 L 3.9375 0 L 1.65625 0 L 1.65625 -12.28125 L 10.609375 -12.28125 L 10.609375 -10.375 Z M 3.9375 -10.375 "/></g></g></g><g fill="#231f20" fill-opacity="1"><g transform="translate(218.587832, 150.160889)"><g><path d="M 10.859375 -1.90625 L 10.859375 0 L 1.65625 0 L 1.65625 -12.28125 L 10.609375 -12.28125 L 10.609375 -10.375 L 3.9375 -10.375 L 3.9375 -7.171875 L 9.859375 -7.171875 L 9.859375 -5.296875 L 3.9375 -5.296875 L 3.9375 -1.90625 Z M 10.859375 -1.90625 "/></g></g></g></svg>